M48
; DRILL file {KiCad (6.0.0)} date Mon Feb 21 12:39:26 2022
; FORMAT={-:-/ absolute / inch / decimal}
; #@! TF.CreationDate,2022-02-21T12:39:26-05:00
; #@! TF.GenerationSoftware,Kicad,Pcbnew,(6.0.0)
; #@! TF.FileFunction,Plated,1,2,PTH
FMAT,2
INCH
; #@! TA.AperFunction,Plated,PTH,ViaDrill
T1C0.0157
; #@! TA.AperFunction,Plated,PTH,ComponentDrill
T2C0.0315
; #@! TA.AperFunction,Plated,PTH,ComponentDrill
T3C0.0394
; #@! TA.AperFunction,Plated,PTH,ComponentDrill
T4C0.0433
; #@! TA.AperFunction,Plated,PTH,ComponentDrill
T5C0.0598
; #@! TA.AperFunction,Plated,PTH,ComponentDrill
T6C0.0787
; #@! TA.AperFunction,Plated,PTH,ComponentDrill
T7C0.1260
%
G90
G05
T1
X5.7579Y-4.0866
X5.811Y-4.0827
X5.9075Y-4.8366
X6.3701Y-3.811
X6.605Y-3.775
X6.935Y-3.8
X7.2Y-3.8
T2
X5.2795Y-3.4311
X5.2795Y-3.8311
X5.34Y-3.94
X5.34Y-4.145
X5.4866Y-3.7
X5.6834Y-3.7
X6.0516Y-4.85
X6.0616Y-3.805
X6.1386Y-3.4311
X6.2484Y-4.85
X6.2584Y-3.805
X6.485Y-4.845
X6.5386Y-3.4311
X6.615Y-4.975
X6.82Y-4.85
X7.08Y-4.785
T3
X5.4008Y-4.609
X5.4833Y-3.8425
X5.4833Y-3.9425
X5.4833Y-4.0425
X5.4833Y-4.1425
X5.4833Y-4.2425
X5.5008Y-4.609
X5.7612Y-3.93
X5.7612Y-4.5306
X5.8524Y-4.98
X5.8612Y-3.93
X5.8612Y-4.5306
X5.9524Y-4.98
X5.9612Y-3.93
X5.9612Y-4.5306
X6.0524Y-4.98
X6.0612Y-3.93
X6.0612Y-4.5306
X6.0679Y-3.6506
X6.1524Y-4.98
X6.1612Y-3.93
X6.1612Y-4.5306
X6.1679Y-3.6506
X6.2612Y-4.5306
X6.2612Y-3.93
X6.2679Y-3.6506
X6.3612Y-3.93
X6.3612Y-4.5306
X6.3679Y-3.6506
X6.3839Y-4.98
X6.3858Y-4.709
X6.4612Y-3.93
X6.4612Y-4.5306
X6.4679Y-3.6506
X6.4839Y-4.98
X6.4858Y-4.709
X6.5612Y-3.93
X6.5612Y-4.5306
X6.5679Y-3.6506
X6.6612Y-3.93
X6.6612Y-4.5306
X6.6679Y-3.6506
X6.7612Y-3.93
X6.7612Y-4.5306
X6.7679Y-3.6506
X6.825Y-4.71
X6.8612Y-3.93
X6.8612Y-4.5306
X6.925Y-4.71
X6.9612Y-3.93
X6.9612Y-4.5306
X7.0612Y-3.93
X7.0612Y-4.5306
X7.1612Y-3.93
X7.1612Y-4.5306
X7.2308Y-4.704
X7.2612Y-3.93
X7.2612Y-4.5306
X7.3308Y-4.704
X7.3612Y-3.93
X7.3612Y-4.5306
T4
X5.1772Y-4.08
X5.1772Y-4.18
X5.1772Y-4.28
T5
X4.815Y-3.9098
X4.815Y-4.1098
X4.815Y-4.3433
X4.815Y-4.5433
T6
X5.3452Y-4.925
X5.624Y-4.925
T7
X5.0393Y-3.477
X5.0393Y-4.983
X7.0482Y-3.477
X7.0482Y-4.983
T0
M30
