M48
; DRILL file {KiCad (6.0.0)} date Sat Mar  5 13:57:04 2022
; FORMAT={-:-/ absolute / inch / decimal}
; #@! TF.CreationDate,2022-03-05T13:57:04-05:00
; #@! TF.GenerationSoftware,Kicad,Pcbnew,(6.0.0)
; #@! TF.FileFunction,Plated,1,2,PTH
FMAT,2
INCH
; #@! TA.AperFunction,Plated,PTH,ViaDrill
T1C0.0236
; #@! TA.AperFunction,Plated,PTH,ComponentDrill
T2C0.0315
; #@! TA.AperFunction,Plated,PTH,ComponentDrill
T3C0.0394
; #@! TA.AperFunction,Plated,PTH,ComponentDrill
T4C0.0433
; #@! TA.AperFunction,Plated,PTH,ComponentDrill
T5C0.0598
; #@! TA.AperFunction,Plated,PTH,ComponentDrill
T6C0.0787
; #@! TA.AperFunction,Plated,PTH,ComponentDrill
T7C0.1260
%
G90
G05
T1
X5.5059Y-4.4441
X5.5768Y-4.0315
X5.64Y-4.095
X5.755Y-4.095
X5.905Y-4.925
X6.1612Y-3.815
X6.46Y-3.815
X6.56Y-4.03
X6.57Y-3.74
X6.665Y-3.74
X6.965Y-3.815
X7.0612Y-3.815
X7.18Y-3.815
T2
X5.2461Y-3.4299
X5.2461Y-3.8299
X5.34Y-3.94
X5.34Y-4.145
X5.4866Y-3.7
X5.585Y-3.7
X6.0374Y-4.9941
X6.1358Y-4.9941
X6.1386Y-3.4311
X6.2608Y-3.81
X6.3592Y-3.81
X6.485Y-4.845
X6.5386Y-3.4311
X6.615Y-4.975
X6.82Y-4.85
X7.08Y-4.785
T3
X5.4008Y-4.609
X5.4833Y-3.8425
X5.4833Y-3.9425
X5.4833Y-4.0425
X5.4833Y-4.1425
X5.4833Y-4.2425
X5.5008Y-4.609
X5.7612Y-3.93
X5.7612Y-4.5306
X5.8366Y-4.8022
X5.8612Y-3.93
X5.8612Y-4.5306
X5.9366Y-4.8022
X5.9612Y-3.93
X5.9612Y-4.5306
X6.0366Y-4.8022
X6.0612Y-3.93
X6.0612Y-4.5306
X6.0679Y-3.6506
X6.1366Y-4.8022
X6.1612Y-3.93
X6.1612Y-4.5306
X6.1679Y-3.6506
X6.2612Y-3.93
X6.2612Y-4.5306
X6.2679Y-3.6506
X6.3612Y-3.93
X6.3612Y-4.5306
X6.3679Y-3.6506
X6.3839Y-4.98
X6.3858Y-4.709
X6.4612Y-3.93
X6.4612Y-4.5306
X6.4679Y-3.6506
X6.4839Y-4.98
X6.4858Y-4.709
X6.5612Y-3.93
X6.5612Y-4.5306
X6.5679Y-3.6506
X6.6612Y-3.93
X6.6612Y-4.5306
X6.6679Y-3.6506
X6.7612Y-3.93
X6.7612Y-4.5306
X6.7679Y-3.6506
X6.825Y-4.71
X6.8612Y-3.93
X6.8612Y-4.5306
X6.925Y-4.71
X6.9612Y-3.93
X6.9612Y-4.5306
X7.0612Y-3.93
X7.0612Y-4.5306
X7.1612Y-3.93
X7.1612Y-4.5306
X7.2308Y-4.704
X7.2612Y-3.93
X7.2612Y-4.5306
X7.3308Y-4.704
X7.3612Y-3.93
X7.3612Y-4.5306
T4
X5.11Y-4.0988
X5.11Y-4.1988
X5.11Y-4.2988
T5
X4.815Y-3.9098
X4.815Y-4.1098
X4.815Y-4.3433
X4.815Y-4.5433
T6
X5.3452Y-4.925
X5.624Y-4.925
T7
X5.0393Y-3.477
X5.0393Y-4.983
X7.0482Y-3.477
X7.0482Y-4.983
T0
M30
